# OBJ written from P:\projects\sources\shadowknife\levels\level1.obj
# Units	meters

o Mesh
v -0.525 0.05 0
v -0.525 0.775 0
v 0.525 0.775 0
v 0.525 0.05 0
v -0.01 1.045 0
v 0.01 1.045 0
v 0.01 0 0
v -0.01 0 0
v 0.39 1.045 0
v 0.41 1.045 0
v 0.41 0 0
v 0.39 0 0
v -0.39 1.045 0
v -0.41 1.045 0
v -0.41 0 0
v -0.39 0 0
v 0.525 1.065 0
v 0.525 1.045 0
v -0.525 1.045 0
v -0.525 1.065 0
v 0.525 0.05 0.7
v 0.525 0.775 0.7
v 0.525 0.775 -0.35
v -0.525 0.775 -0.35
v 0.825 1.125 0.7
v 0.825 1.125 0
v 0.825 1.125 -0.35
vn 0 0 1
vn -1 0 0
vn -0.759257 0.650791 0
vn 0 1 0
vt 1 0
vt 1 1
vt 0 1
vt 0 0
mtllib level1.mtl
usemtl 1
g Default
f 5/1/1 8/2/1 7/3/1 6/4/1
f 9/1/1 12/2/1 11/3/1 10/4/1
f 13/1/1 14/4/1 15/3/1 16/2/1
f 17/1/1 20/2/1 19/3/1 18/4/1
f 4/4/2 21/1/2 22/2/2 3/3/2
f 22/4/3 25/1/3 26/2/3 3/3/3
f 3/4/3 26/1/3 27/2/3 23/3/3
f 4/2/1 3/3/1 2/4/1 1/1/1
f 3/4/4 23/1/4 24/2/4 2/3/4
