# OBJ written from P:\projects\sources\shadowknife\objects\katana.obj
# Units	meters

o Mesh
v -0.0189 0 -0.0406
v 0.0189 0 -0.0406
v -0.0189 0 0.0406
v 0.0189 0 0.0406
v -0.0189 0.3479 -0.0406
v 0.0189 0.3479 -0.0406
v -0.0189 0.3479 0.0406
v 0.0189 0.3479 0.0406
v -0.0089 1.38 0.0446
v 0.0089 1.38 0.0446
v 0.0089 0.358938 -0.0446
v -0.0089 0.358938 -0.0446
v -0.0089 0.358938 0.0446
v 0.0089 0.358938 0.0446
v -0.0089 1.3064 -0.0446
v -0.0089 1.38 0.029
v 0.0089 1.38 0.029
v 0.0089 1.3064 -0.0446
v -0.0469 0.342789 -0.0686
v 0.0469 0.342789 -0.0686
v -0.0469 0.342789 0.0686
v 0.0469 0.342789 0.0686
v 0.0469 0.354249 -0.0686
v -0.0469 0.354249 -0.0686
v -0.0469 0.354249 0.0686
v 0.0469 0.354249 0.0686
vn 0 0 -1
vn -1 0 0
vn 1 0 0
vn 0 0 1
vn 0 0.707107 -0.707107
vn 0 1 0
vn 0 -1 0
vt 0.25 0
vt 0.31125 0
vt 0.31125 0.333333
vt 0.25 0.333333
vt 1 0.666667
vt 0.93875 0.666667
vt 0.93875 0.333333
vt 1 0.333333
vt 0.31125 0.666667
vt 0.25 0.666667
vt 0.31125 1
vt 0.25 1
vt 0.5 1
vt 0.315025 1
vt 0.315025 0.666667
vt 0.5 0.666667
vt 0.486667 0.333333
vt 0.486667 0
vt 0.706278 0.550075
vt 0.5 0.608371
vt 0.315025 0.333333
vt 0.315025 0
vt 0.763333 0.333333
vt 0.934975 0.333333
vt 0.934975 0.666667
vt 0.75 0.666667
vt 0.75 0.608371
mtllib katana.mtl
usemtl Default
g Default
f 1/1/1 5/2/1 6/3/1 2/4/1
f 3/5/2 7/6/2 5/7/2 1/8/2
f 2/4/3 6/3/3 8/9/3 4/10/3
f 4/10/4 8/9/4 7/11/4 3/12/4
f 9/13/4 13/14/4 14/15/4 10/16/4
f 18/17/5 15/18/5 16/19/5 17/20/5
f 11/21/1 12/22/1 15/18/1 18/17/1
f 15/23/2 12/24/2 13/25/2 9/26/2 16/27/2
f 14/15/3 11/21/3 18/17/3 17/20/3 10/16/3
f 9/26/6 10/16/6 17/20/6 16/19/6
f 1/1/7 2/4/7 4/10/7 3/5/7
f 23/21/1 20/3/1 19/2/1 24/22/1
f 24/24/2 19/7/2 21/6/2 25/25/2
f 26/15/3 22/9/3 20/3/3 23/21/3
f 25/14/4 21/11/4 22/9/4 26/15/4
f 20/3/7 22/9/7 21/11/7 19/7/7
f 24/22/6 25/25/6 26/15/6 23/21/6

o Mesh (2)
v -0.0189 0 -0.0406
v 0.0189 0 -0.0406
v -0.0189 0 0.0406
v 0.0189 0 0.0406
v -0.0189 0.3479 -0.0406
v 0.0189 0.3479 -0.0406
v -0.0189 0.3479 0.0406
v 0.0189 0.3479 0.0406
v -0.0089 1.38 0.0446
v 0.0089 1.38 0.0446
v 0.0089 0.358938 -0.0446
v -0.0089 0.358938 -0.0446
v -0.0089 0.358938 0.0446
v 0.0089 0.358938 0.0446
v -0.0089 1.3064 -0.0446
v -0.0089 1.38 0.029
v 0.0089 1.38 0.029
v 0.0089 1.3064 -0.0446
v -0.0469 0.342789 -0.0686
v 0.0469 0.342789 -0.0686
v -0.0469 0.342789 0.0686
v 0.0469 0.342789 0.0686
v 0.0469 0.354249 -0.0686
v -0.0469 0.354249 -0.0686
v -0.0469 0.354249 0.0686
v 0.0469 0.354249 0.0686
vn 0 0 -1
vn -1 0 0
vn 1 0 0
vn 0 0 1
vn 0 0.707107 -0.707107
vn 0 1 0
vn 0 -1 0
vt 0.25 0
vt 0.31125 0
vt 0.31125 0.333333
vt 0.25 0.333333
vt 1 0.666667
vt 0.93875 0.666667
vt 0.93875 0.333333
vt 1 0.333333
vt 0.31125 0.666667
vt 0.25 0.666667
vt 0.31125 1
vt 0.25 1
vt 0.5 1
vt 0.315025 1
vt 0.315025 0.666667
vt 0.5 0.666667
vt 0.486667 0.333333
vt 0.486667 0
vt 0.706278 0.550075
vt 0.5 0.608371
vt 0.315025 0.333333
vt 0.315025 0
vt 0.763333 0.333333
vt 0.934975 0.333333
vt 0.934975 0.666667
vt 0.75 0.666667
vt 0.75 0.608371
mtllib katana.mtl
usemtl Default
g Default
f 27/28/8 31/29/8 32/30/8 28/31/8
f 29/32/9 33/33/9 31/34/9 27/35/9
f 28/31/10 32/30/10 34/36/10 30/37/10
f 30/37/11 34/36/11 33/38/11 29/39/11
f 35/40/11 39/41/11 40/42/11 36/43/11
f 44/44/12 41/45/12 42/46/12 43/47/12
f 37/48/8 38/49/8 41/45/8 44/44/8
f 41/50/9 38/51/9 39/52/9 35/53/9 42/54/9
f 40/42/10 37/48/10 44/44/10 43/47/10 36/43/10
f 35/53/13 36/43/13 43/47/13 42/46/13
f 27/28/14 28/31/14 30/37/14 29/32/14
f 49/48/8 46/30/8 45/29/8 50/49/8
f 50/51/9 45/34/9 47/33/9 51/52/9
f 52/42/10 48/36/10 46/30/10 49/48/10
f 51/41/11 47/38/11 48/36/11 52/42/11
f 46/30/14 48/36/14 47/38/14 45/34/14
f 50/49/13 51/52/13 52/42/13 49/48/13
