# OBJ written from P:\projects\sources\shadowknife\levels\level1.obj
# Units	meters

o Mesh
v -0.56 0.05 0
v -0.56 0.775 0
v 0.525 0.775 0
v 0.525 0.05 0
v -0.01 1.045 0
v 0.01 1.045 0
v 0.01 0 0
v -0.01 0 0
v 0.39 1.045 0
v 0.41 1.045 0
v 0.41 0 0
v 0.39 0 0
v -0.39 1.045 0
v -0.41 1.045 0
v -0.41 0 0
v -0.39 0 0
v 0.525 1.065 0
v 0.525 1.045 0
v -0.525 1.045 0
v -0.525 1.065 0
v 0.525 0.05 0.7
v 0.525 0.775 0.7
v 0.525 0.775 -0.35
v -0.56 0.775 -0.35
v 0.825 1.125 0.7
v 0.825 1.125 0
v 0.825 1.125 -0.35
v -0.564968 1.07006 -1.03503
v -0.564968 0 -1.03503
v -1.63503 0 0.035032
v -1.63503 1.07006 0.035032
v -0.564968 1.07006 0.035032
v -0.564968 0 0.035032
v -1.63503 1.07006 0.035032
v -0.564968 1.07006 0.035032
v -0.564968 0.870064 0.235032
v -1.63503 0.870064 0.235032
v -1.52803 0.904005 0.268973
v -1.52803 1.10401 0.0689732
v -1.42102 0.870064 0.235032
v -1.42102 1.07006 0.035032
v -1.31401 0.904005 0.268973
v -1.31401 1.10401 0.0689732
v -1.20701 0.870064 0.235032
v -1.20701 1.07006 0.035032
v -1.1 0.904005 0.268973
v -1.1 1.10401 0.0689732
v -0.992994 0.870064 0.235032
v -0.992994 1.07006 0.035032
v -0.885987 0.904005 0.268973
v -0.885987 1.10401 0.0689732
v -0.778981 0.870064 0.235032
v -0.778981 1.07006 0.035032
v -0.671974 0.904005 0.268973
v -0.671974 1.10401 0.0689732
vn 0 0 1
vn -1 0 0
vn -0.759257 0.650791 0
vn 0 1 0
vn 1 0 0
vn 0.40928 0.64517 0.64517
vn -0.40928 0.64517 0.64517
vn 0.409281 0.64517 0.64517
vn -0.409281 0.64517 0.64517
vn -0.40928 0.64517 0.64517
vt 1 0
vt 1 1
vt 0 1
vt 0 0
vt 0.5 0.666667
vt 0.25 0.666667
vt 0.25 0.333333
vt 0.5 0.333333
vt 0.25 1
vt 0.5 1
vt 0 0.9
vt 1 0.9
vt 1 0.8
vt 0 0.8
vt 1 0.7
vt 0 0.7
vt 1 0.6
vt 0 0.6
vt 1 0.5
vt 0 0.5
vt 1 0.4
vt 0 0.4
vt 1 0.3
vt 0 0.3
vt 1 0.2
vt 0 0.2
vt 1 0.1
vt 0 0.1
mtllib level1.mtl
usemtl Default
g Default
f 32/5/5 33/6/5 29/7/5 28/8/5
f 30/9/1 33/6/1 32/5/1 31/10/1
usemtl 1
f 5/1/1 8/2/1 7/3/1 6/4/1
f 9/1/1 12/2/1 11/3/1 10/4/1
f 13/1/1 14/4/1 15/3/1 16/2/1
f 17/1/1 20/2/1 19/3/1 18/4/1
f 4/4/2 21/1/2 22/2/2 3/3/2
f 22/4/3 25/1/3 26/2/3 3/3/3
f 3/4/3 26/1/3 27/2/3 23/3/3
f 4/2/1 3/3/1 2/4/1 1/1/1
f 3/4/4 23/1/4 24/2/4 2/3/4
usemtl 3
f 39/11/6 38/12/6 40/13/6 41/14/6
f 41/14/7 40/13/7 42/15/7 43/16/7
f 43/16/8 42/15/8 44/17/8 45/18/8
f 45/18/7 44/17/7 46/19/7 47/20/7
f 47/20/6 46/19/6 48/21/6 49/22/6
f 49/22/7 48/21/7 50/23/7 51/24/7
f 51/24/6 50/23/6 52/25/6 53/26/6
f 53/26/9 52/25/9 54/27/9 55/28/9
f 55/28/6 54/27/6 36/1/6 35/4/6
f 38/12/10 39/11/10 34/3/10 37/2/10
